# xmcd
#
# Track frame offsets: 
#        150
#        29905
#        51629
#        78408
#        104452
#        139775
#        164667
#        187894
#
# Disc length: 2800 seconds
#
# Revision: 0
# Processed by: cddbd v1.5.2PL0 Copyright (c) Steve Scherf et al.
# Submitted via: ExactAudioCopy v1.0b1
#
DISCID=740aee08
DTITLE=Albert Collins - Monterey Jazz Festival 9-16-78
DYEAR=1978
DGENRE=Texas Blues
TTITLE0=Somebody's Gotta Go
TTITLE1=I'm Ready
TTITLE2=Instrumental
TTITLE3=Have Mercy
TTITLE4=Don't Lose Your Cool
TTITLE5=Do What You Wanna Do
TTITLE6=Things That I Used To Do
TTITLE7=Frosty
EXTD=
EXTT0=
EXTT1=
EXTT2=
EXTT3=
EXTT4=
EXTT5=
EXTT6=
EXTT7=
PLAYORDER=
